Coordinates
version=1
nRows=32
nColumns=12
inDegrees=yes

Units are S.I. units (second, meters, Newtons, ...)
Angles are in degrees

endheader
time	SC_y	SC_z	SC_x	AC_y	AC_z	AC_x	GH_y	GH_z	GH_yy	EL_x	PS_y
       0.0              -18.07          36.26          1.968          56.95         -15.17        -0.7733          146.5          24.69          129.1          98.96          36.77
   0.03915              -18.07          36.26          1.975          56.95         -15.17        -0.7727          146.5          24.69          129.1          98.95          36.78
    0.0783              -18.07          36.25          1.981          56.95         -15.17        -0.7721          146.5          24.69          129.1          98.94           36.8
    0.1174              -18.08          36.25          1.988          56.95         -15.17        -0.7714          146.5          24.69          129.0          98.93          36.82
    0.1566              -18.08          36.24          1.995          56.95         -15.17        -0.7707          146.5          24.69          129.0          98.92          36.84
    0.1957              -18.09          36.24          2.003          56.95         -15.17        -0.7699          146.5          24.69          128.9          98.91          36.86
    0.2349               -18.1          36.23          2.011          56.95         -15.17        -0.7691          146.5          24.69          128.9           98.9          36.89
     0.274               -18.1          36.23           2.02          56.95         -15.16        -0.7682          146.5          24.68          128.8          98.88          36.91
    0.3132              -18.11          36.22          2.029          56.95         -15.16        -0.7672          146.5          24.68          128.8          98.87          36.94
    0.3523              -18.12          36.21           2.04          56.95         -15.16        -0.7662          146.5          24.68          128.7          98.86          36.97
    0.3915              -18.12          36.21          2.051          56.95         -15.16        -0.7651          146.5          24.68          128.6          98.84           37.0
    0.4306              -18.13           36.2          2.062          56.95         -15.16        -0.7639          146.5          24.68          128.6          98.82          37.03
    0.4698              -18.14          36.19          2.075          56.95         -15.16        -0.7627          146.5          24.68          128.5          98.81          37.07
    0.5089              -18.15          36.18          2.089          56.95         -15.16        -0.7613          146.5          24.68          128.4          98.79          37.11
    0.5481              -18.16          36.17          2.104          56.95         -15.16        -0.7598          146.5          24.68          128.3          98.76          37.15
    0.5872              -18.17          36.16           2.12          56.95         -15.16        -0.7582          146.5          24.67          128.2          98.74          37.19
    0.6264              -18.19          36.15          2.137          56.95         -15.16        -0.7565          146.5          24.67          128.1          98.72          37.24
    0.6655               -18.2          36.14          2.156          56.95         -15.16        -0.7546          146.6          24.67          128.0          98.69           37.3
    0.7047              -18.22          36.13          2.177          56.94         -15.15        -0.7525          146.6          24.67          127.9          98.66          37.36
    0.7438              -18.23          36.11            2.2          56.94         -15.15        -0.7502          146.6          24.66          127.7          98.63          37.42
     0.783              -18.25           36.1          2.225          56.94         -15.15        -0.7477          146.6          24.66          127.6          98.59          37.49
    0.8221              -18.27          36.08          2.252          56.94         -15.15         -0.745          146.6          24.66          127.4          98.55          37.57
    0.8613              -18.29          36.06          2.283          56.94         -15.15        -0.7419          146.6          24.66          127.2          98.51          37.66
    0.9004              -18.32          36.04          2.316          56.94         -15.14        -0.7385          146.6          24.65          127.0          98.46          37.75
    0.9396              -18.34          36.01          2.354          56.94         -15.14        -0.7348          146.7          24.65          126.8          98.41          37.86
    0.9787              -18.37          35.99          2.396          56.93         -15.14        -0.7306          146.7          24.64          126.5          98.35          37.97
     1.018              -18.41          35.96          2.442          56.93         -15.13         -0.726          146.7          24.64          126.3          98.28          38.11
     1.057              -18.44          35.93          2.495          56.93         -15.13        -0.7207          146.7          24.63          125.9           98.2          38.26
     1.096              -18.49          35.89          2.554          56.93         -15.13        -0.7148          146.8          24.63          125.6          98.12          38.42
     1.135              -18.53          35.84          2.622          56.92         -15.12         -0.708          146.8          24.62          125.2          98.02          38.62
     1.174              -18.59           35.8          2.699          56.92         -15.12        -0.7003          146.8          24.61          124.7          97.91          38.83
     1.214              -18.65          35.74          2.788          56.91         -15.11        -0.6915          146.9           24.6          124.2          97.78          39.08
